<svg width="60" height="103" viewBox="0 0 60 103" fill="none" xmlns="http://www.w3.org/2000/svg">
<g id="&#240;&#159;&#166;&#134; icon &#34;arrow ios back&#34;">
<path id="Vector" d="M37.8448 81.5126C37.2042 81.5148 36.5713 81.3734 35.9926 81.0989C35.4139 80.8244 34.904 80.4237 34.5005 79.9262L13.7918 54.2011C13.1611 53.434 12.8164 52.4717 12.8164 51.4786C12.8164 50.4855 13.1611 49.5232 13.7918 48.756L35.2294 23.0309C35.9571 22.1553 37.0029 21.6047 38.1366 21.5001C39.2704 21.3956 40.3992 21.7457 41.2748 22.4735C42.1504 23.2013 42.701 24.247 42.8055 25.3808C42.91 26.5145 42.5599 27.6433 41.8321 28.5189L22.6669 51.5L41.189 74.4811C41.7133 75.1104 42.0463 75.8768 42.1487 76.6895C42.2511 77.5022 42.1186 78.3272 41.7667 79.0669C41.4149 79.8066 40.8586 80.4301 40.1635 80.8635C39.4685 81.2969 38.6638 81.5222 37.8448 81.5126Z" fill="white"/>
</g>
</svg>
